# xmcd CD database file
# Copyright (C) 1993-1998 Ti Kan
# 
# Track frame offsets:
#     150
#     10840
#     19945
#     33755
#     43375
#     58480
#     66192
#     77292
#     83665
#     95095
#     105052
#     117915
#     130745
# 
# Disc length: 1865 seconds
# 
# Revision: 1
# Processed by: cddbd v1.4b41PL1 Copyright (c) Steve Scherf et al.
# Submitted via: DiscPlay 4.0.4
# 
DISCID=9d07470d
DTITLE=Hard-Ons - Love Is A Battlefield
DYEAR=1900
DGENRE=
TTITLE0=Don't Wanna see You Cry
TTITLE1=Rejected
TTITLE2=Chitty Chitty Bang Bang
TTITLE3=Been Had Before
TTITLE4=You're A Tease
TTITLE5=Who Do You Wanna Fool
TTITLE6=Get Wet
TTITLE7=Rich Scrag
TTITLE8=Do It With You
TTITLE9=Missing You, Missing Me
TTITLE10=Throw It In
TTITLE11=Kill Your Mum
TTITLE12=Coff's Harbour Blues
EXTD=
EXTT0=
EXTT1=
EXTT2=
EXTT3=
EXTT4=
EXTT5=
EXTT6=
EXTT7=
EXTT8=
EXTT9=
EXTT10=
EXTT11=
EXTT12=
PLAYORDER=
